<mxfile host="app.diagrams.net" modified="2021-04-09T14:44:52.162Z" agent="5.0 (Windows)" etag="ag4IsRx3E1W-aLPxoLCZ" version="14.5.9" type="github">
  <diagram id="NRmai4ufiU7n2OQgseoS" name="Page-1">
    <mxGraphModel dx="1422" dy="791" grid="1" gridSize="10" guides="1" tooltips="1" connect="1" arrows="1" fold="1" page="1" pageScale="1" pageWidth="827" pageHeight="1169" math="0" shadow="0">
      <root>
        <mxCell id="0" />
        <mxCell id="1" parent="0" />
        <mxCell id="R0dW41iW67-p02SMjD4P-4" value="" style="rounded=0;whiteSpace=wrap;html=1;" vertex="1" parent="1">
          <mxGeometry x="40" y="120" width="760" height="570" as="geometry" />
        </mxCell>
        <mxCell id="R0dW41iW67-p02SMjD4P-6" value="" style="rounded=0;whiteSpace=wrap;html=1;" vertex="1" parent="1">
          <mxGeometry x="60" y="140" width="170" height="520" as="geometry" />
        </mxCell>
        <mxCell id="R0dW41iW67-p02SMjD4P-9" value="" style="rounded=0;whiteSpace=wrap;html=1;" vertex="1" parent="1">
          <mxGeometry x="70" y="190" width="140" height="30" as="geometry" />
        </mxCell>
        <mxCell id="R0dW41iW67-p02SMjD4P-10" value="" style="rounded=0;whiteSpace=wrap;html=1;" vertex="1" parent="1">
          <mxGeometry x="70" y="230" width="140" height="30" as="geometry" />
        </mxCell>
        <mxCell id="R0dW41iW67-p02SMjD4P-11" value="" style="rounded=0;whiteSpace=wrap;html=1;" vertex="1" parent="1">
          <mxGeometry x="70" y="270" width="140" height="30" as="geometry" />
        </mxCell>
        <mxCell id="R0dW41iW67-p02SMjD4P-12" value="" style="rounded=0;whiteSpace=wrap;html=1;" vertex="1" parent="1">
          <mxGeometry x="70" y="310" width="140" height="30" as="geometry" />
        </mxCell>
        <mxCell id="R0dW41iW67-p02SMjD4P-13" value="" style="rounded=0;whiteSpace=wrap;html=1;" vertex="1" parent="1">
          <mxGeometry x="70" y="350" width="140" height="30" as="geometry" />
        </mxCell>
        <mxCell id="R0dW41iW67-p02SMjD4P-14" value="" style="rounded=0;whiteSpace=wrap;html=1;" vertex="1" parent="1">
          <mxGeometry x="70" y="390" width="140" height="30" as="geometry" />
        </mxCell>
        <mxCell id="R0dW41iW67-p02SMjD4P-15" value="" style="rounded=0;whiteSpace=wrap;html=1;" vertex="1" parent="1">
          <mxGeometry x="70" y="150" width="140" height="30" as="geometry" />
        </mxCell>
        <mxCell id="R0dW41iW67-p02SMjD4P-8" value="Armazem 1 " style="text;html=1;strokeColor=none;fillColor=none;align=center;verticalAlign=middle;whiteSpace=wrap;rounded=0;" vertex="1" parent="1">
          <mxGeometry x="100" y="155" width="75" height="20" as="geometry" />
        </mxCell>
        <mxCell id="R0dW41iW67-p02SMjD4P-16" value="&lt;div&gt;Armazem 2&lt;/div&gt;" style="text;html=1;strokeColor=none;fillColor=none;align=center;verticalAlign=middle;whiteSpace=wrap;rounded=0;" vertex="1" parent="1">
          <mxGeometry x="100" y="195" width="75" height="20" as="geometry" />
        </mxCell>
        <mxCell id="R0dW41iW67-p02SMjD4P-17" value="&lt;div&gt;Armazem 3&lt;br&gt;&lt;/div&gt;" style="text;html=1;strokeColor=none;fillColor=none;align=center;verticalAlign=middle;whiteSpace=wrap;rounded=0;" vertex="1" parent="1">
          <mxGeometry x="102.5" y="235" width="75" height="20" as="geometry" />
        </mxCell>
        <mxCell id="R0dW41iW67-p02SMjD4P-18" value="&lt;div&gt;Armazem 4&lt;br&gt;&lt;/div&gt;" style="text;html=1;strokeColor=none;fillColor=none;align=center;verticalAlign=middle;whiteSpace=wrap;rounded=0;" vertex="1" parent="1">
          <mxGeometry x="102.5" y="275" width="75" height="20" as="geometry" />
        </mxCell>
      </root>
    </mxGraphModel>
  </diagram>
</mxfile>
